<?xml version="1.0" encoding="UTF-8" standalone="no"?>
<svg id="basemap_layer" viewBox="0 0 24 24" width="100%" height="100%">
<g><path class="st0" d="M3.6,22h5.7c0.9,0,1.6-0.7,1.6-1.6v-5.7c0-0.4-0.2-0.8-0.5-1.1l-8,8C2.8,21.8,3.2,22,3.6,22z" style="fill:#04c172"></path> <path class="st0" d="M20.4,13.1h-5.7c-0.9,0-1.6,0.7-1.6,1.6v5.7c0,0.9,0.7,1.6,1.6,1.6h5.7c0.9,0,1.6-0.7,1.6-1.6v-5.7C22,13.8,21.3,13.1,20.4,13.1z" style="fill:#04c172"></path> <path class="st1" d="M3.6,10.9h5.7c0.9,0,1.6-0.7,1.6-1.6V3.6c0-0.9-0.7-1.6-1.6-1.6H3.6C2.7,2,2,2.7,2,3.6v5.7C2,10.2,2.7,10.9,3.6,10.9z" style="fill:#74DE8E"></path> <path class="st1" d="M3.6,13.1c-0.9,0-1.6,0.7-1.6,1.6v5.7c0,0.4,0.2,0.8,0.5,1.1l8-8c-0.3-0.3-0.7-0.5-1.1-0.5H3.6z" style="fill:#74DE8E"></path> <path class="st0" d="M13.6,10.4c0.3,0.3,0.7,0.5,1.1,0.5h5.7c0.9,0,1.6-0.7,1.6-1.6V3.6c0-0.4-0.2-0.8-0.5-1.1L13.6,10.4z" style="fill:#04c172"></path> <path class="st1" d="M20.4,2h-5.7c-0.9,0-1.6,0.7-1.6,1.6v5.7c0,0.4,0.2,0.8,0.5,1.1l8-8C21.2,2.2,20.8,2,20.4,2z" style="fill:#74DE8E"></path></g>
</svg>
