<svg width="24" height="24" xmlns="http://www.w3.org/2000/svg">
 <title>ring fill</title>

 <metadata id="metadata5697">image/svg+xmlring fill2014-02-04Robert Szczepanekring fillGIS icons 0.2</metadata>
 <g>
  <title>background</title>
  <rect fill="none" id="canvas_background" height="402" width="582" y="-1" x="-1"/>
 </g>
 <g>
  <title>Layer 1</title>
  <g stroke-linejoin="round" stroke-linecap="round" stroke-width="1" stroke="#555753" fill="#8cbe8c" display="inline" id="layer4">
   <path fill="#8cbe8c" fill-rule="evenodd" stroke="#555753" stroke-width="1" stroke-linecap="round" stroke-linejoin="round" stroke-miterlimit="4" d="m8.02759,1.50139c-2.81834,0.04664 -5.28782,1.25526 -6.28398,4.19473c-0.98847,2.91677 1.17149,8.182 5.93258,5.8405c7.90774,-3.88903 7.9038,0.96338 9.88073,0.96338c2.43857,0 4.94037,-1.69957 4.94037,-3.8736c0,-1.94451 0.09638,-3.80639 -0.9922,-4.87712c-1.97694,-1.94451 -2.97368,0.9874 -8.28907,-1.18416c-1.69402,-0.69207 -3.49742,-1.09171 -5.18843,-1.06373z" id="path3112"/>
  </g>
  <g stroke="null" display="inline" id="svg_2">
   <path stroke="#555753" fill="#8cbe8c" fill-rule="evenodd" stroke-width="1" stroke-linecap="round" stroke-linejoin="round" stroke-miterlimit="4" d="m12.917454,13.866528c-1.742089,0.030456 -3.268538,0.819699 -3.88429,2.739206c-0.610999,1.904684 0.724128,5.342938 3.667081,3.813912c4.887978,-2.53958 4.885543,0.629098 6.107534,0.629098c1.507343,0 3.05377,-1.109838 3.05377,-2.529504c0,-1.269787 0.059575,-2.485616 -0.613304,-3.184814c-1.221998,-1.269787 -1.838108,0.644783 -5.123688,-0.77327c-1.047117,-0.45193 -2.161846,-0.712899 -3.207102,-0.694628z" id="svg_1"/>
  </g>
 </g>
</svg>